<?xml version="1.0" standalone="no"?>
<!DOCTYPE svg PUBLIC "-//W3C//DTD SVG 1.1//EN" "http://www.w3.org/Graphics/SVG/1.1/DTD/svg11.dtd" >
<svg>
<metadata>
Created by FontForge 20120731 at Sat Jun 29 17:47:10 2019
 By www
Copyright 1990-1999 as an unpublished work by Bitstream Inc.  All rights reserved.  Confidential.
</metadata>
<defs>
<font id="Swiss911BT-Compressed" horiz-adv-x="468" >
  <font-face 
    font-family="Swiss 911"
    font-weight="500"
    font-stretch="normal"
    units-per-em="1000"
    panose-1="0 0 0 0 0 0 0 0 0 0"
    ascent="800"
    descent="-200"
    x-height="576"
    cap-height="720"
    bbox="-155 -236 1000 924"
    underline-thickness="113"
    underline-position="-48"
    stemh="103"
    stemv="156"
    unicode-range="U+0020-FB02"
  />
<missing-glyph horiz-adv-x="234" 
 />
    <glyph glyph-name=".notdef" horiz-adv-x="234" 
 />
    <glyph glyph-name="space" unicode=" " horiz-adv-x="234" 
 />
    <glyph glyph-name="exclam" unicode="!" horiz-adv-x="269" 
d="M58 0v168h153v-168h-153zM58 210v510h153v-510h-153z" />
    <glyph glyph-name="quotedbl" unicode="&#x22;" horiz-adv-x="348" 
d="M37 702h107v-274h-107v274zM203 702h109v-274h-109v274z" />
    <glyph glyph-name="numbersign" unicode="#" horiz-adv-x="769" 
d="M334 716h122l-68 -193h115l69 193h122l-68 -193h132l-42 -112h-131l-39 -112h135l-41 -113h-134l-69 -192h-122l68 192h-115l-69 -192h-122l68 192h-134l42 113h132l40 112h-138l42 112h136zM345 411l-40 -113h120l40 113h-120z" />
    <glyph glyph-name="dollar" unicode="$" 
d="M115 362c-62 52 -90 89 -90 180c0 118 48 169 180 180v58h59v-58c140 -14 178 -61 178 -178v-80h-169v114c0 30 -10 44 -39 44s-40 -19 -40 -58c0 -56 15 -68 50 -98l108 -92c64 -54 91 -91 91 -186c0 -125 -43 -177 -181 -189v-107h-59v107c-141 14 -177 61 -177 178
v101h168v-126c0 -30 12 -43 40 -43c32 0 40 21 40 68c0 51 -17 66 -50 94z" />
    <glyph glyph-name="percent" unicode="%" horiz-adv-x="639" 
d="M176 437v197c0 23 -7 33 -25 33c-19 0 -24 -11 -24 -33v-197c0 -22 5 -33 24 -33c18 0 25 10 25 33zM23 610c0 83 32 125 128 125s128 -42 128 -125v-149c0 -83 -32 -125 -128 -125s-128 42 -128 125v149zM426 735h77l-291 -751h-75zM360 258c0 83 32 124 128 124
s128 -41 128 -124v-149c0 -83 -32 -125 -128 -125s-128 42 -128 125v149zM512 84v198c0 23 -6 33 -24 33c-19 0 -24 -10 -24 -33v-198c0 -22 5 -33 24 -33c18 0 24 10 24 33z" />
    <glyph glyph-name="ampersand" unicode="&#x26;" horiz-adv-x="586" 
d="M538 406v-186c0 -27 -7 -47 -25 -69h59v-151h-96c-20 0 -37 10 -54 29c-40 -29 -95 -44 -167 -44c-161 0 -240 70 -240 211v72c0 72 17 105 77 129c-56 57 -58 94 -58 143v15c0 118 72 176 215 176s201 -55 201 -169c0 -92 -28 -130 -138 -175l90 -103v122h136zM325 129
l-141 166v-86c0 -67 28 -102 79 -102c21 0 41 7 62 22zM242 469c45 20 47 47 47 95v12c0 37 -9 52 -42 52c-34 0 -48 -22 -48 -67c0 -33 2 -54 43 -92z" />
    <glyph glyph-name="quoteright" unicode="&#x2019;" horiz-adv-x="234" 
d="M29 468l34 252h149l-80 -252h-103z" />
    <glyph glyph-name="parenleft" unicode="(" horiz-adv-x="336" 
d="M331 720c-83 -127 -124 -257 -124 -392c0 -151 39 -279 124 -407h-151c-82 129 -119 257 -119 407c0 135 40 264 119 392h151z" />
    <glyph glyph-name="parenright" unicode=")" horiz-adv-x="336" 
d="M4 720h151c79 -128 119 -257 119 -392c0 -150 -37 -278 -119 -407h-151c85 128 124 256 124 407c0 135 -41 265 -124 392z" />
    <glyph glyph-name="asterisk" unicode="*" 
d="M102 446l65 87l-100 32l27 82l99 -33l-2 106h85l-1 -106l99 32l27 -82l-101 -31l61 -84l-67 -52l-63 86l-59 -86z" />
    <glyph glyph-name="plus" unicode="+" horiz-adv-x="833" 
d="M359 596h116v-241h234v-113h-234v-242h-116v242h-235v113h235v241z" />
    <glyph glyph-name="comma" unicode="," horiz-adv-x="234" 
d="M11 -128l40 295h162l-92 -295h-110z" />
    <glyph glyph-name="hyphen" unicode="-" horiz-adv-x="278" 
d="M28 232v112h221v-112h-221z" />
    <glyph glyph-name="period" unicode="." horiz-adv-x="234" 
d="M40 0v169h154v-169h-154z" />
    <glyph glyph-name="slash" unicode="/" horiz-adv-x="278" 
d="M76 -93h-85l193 829h86z" />
    <glyph glyph-name="zero" unicode="0" 
d="M22 509c0 155 53 227 212 227s212 -72 212 -227v-300c0 -155 -53 -226 -212 -226s-212 71 -212 226v300zM191 563v-398c0 -43 11 -62 43 -62s42 19 42 62v398c0 43 -10 62 -42 62s-43 -19 -43 -62z" />
    <glyph glyph-name="one" unicode="1" 
d="M169 0v533h-113v104c81 5 131 35 144 83h138v-720h-169z" />
    <glyph glyph-name="two" unicode="2" 
d="M24 0v120c0 79 36 130 89 197c92 115 163 171 163 223v46c0 27 -14 39 -43 39c-32 0 -42 -19 -42 -62v-98h-169v102c0 106 76 169 211 169c145 0 213 -50 213 -166c0 -123 -45 -171 -120 -262c-66 -80 -118 -134 -125 -190h245v-118h-422z" />
    <glyph glyph-name="three" unicode="3" 
d="M22 278h169v-113c0 -43 11 -62 43 -62s42 19 42 62v83c0 53 -11 72 -70 72h-65v111h61c54 0 74 23 74 71v61c0 43 -10 62 -42 62s-43 -19 -43 -62v-98h-169v102c0 106 77 169 212 169s212 -59 212 -155v-67c0 -73 -35 -116 -111 -138c77 -13 111 -49 111 -124v-85
c0 -118 -74 -184 -212 -184c-137 0 -212 65 -212 182v113z" />
    <glyph glyph-name="four" unicode="4" 
d="M240 0v166h-234v141l197 413h204v-439h54v-115h-54v-166h-167zM117 281h125l5 214c1 31 2 63 6 95h-5c-19 -50 -30 -80 -33 -87z" />
    <glyph glyph-name="five" unicode="5" 
d="M276 323c0 43 -11 62 -43 62c-27 0 -39 -14 -44 -47h-167v382h418v-111h-261v-68c0 -23 -3 -46 -7 -69c39 35 78 52 124 52c102 0 149 -54 149 -163v-175c0 -138 -65 -203 -212 -203c-137 0 -211 65 -211 182v117h169v-117c0 -43 10 -62 42 -62s43 19 43 62v158z" />
    <glyph glyph-name="six" unicode="6" 
d="M191 240v-75c0 -43 11 -62 43 -62s42 19 42 62v75c0 43 -10 62 -42 62s-43 -19 -43 -62zM191 563v-132c0 -14 -1 -31 -3 -52c38 40 76 56 129 56c77 0 128 -53 128 -151v-110c0 -127 -71 -191 -211 -191c-159 0 -212 71 -212 226v300c0 155 53 227 212 227
c135 0 211 -63 211 -169v-102h-169v98c0 43 -10 62 -42 62s-43 -19 -43 -62z" />
    <glyph glyph-name="seven" unicode="7" 
d="M32 0l241 609h-263v111h442v-104l-235 -616h-185z" />
    <glyph glyph-name="eight" unicode="8" 
d="M191 255v-97c0 -42 12 -61 43 -61s42 19 42 61v97c0 42 -11 61 -42 61s-43 -19 -43 -61zM22 236c0 75 41 120 122 135c-86 14 -122 55 -122 137v58c0 105 77 170 212 170s212 -62 212 -170v-58c0 -82 -37 -124 -122 -137c82 -16 122 -59 122 -135v-78
c0 -108 -75 -175 -212 -175c-136 0 -212 63 -212 175v78zM276 478v88c0 41 -11 59 -42 59s-43 -18 -43 -59v-88c0 -43 11 -62 43 -62s42 19 42 62z" />
    <glyph glyph-name="nine" unicode="9" 
d="M191 564v-122c0 -43 11 -62 43 -62s42 19 42 62v122c0 43 -10 61 -42 61s-43 -18 -43 -61zM22 215h169v-57c0 -43 11 -62 43 -62s42 19 42 62v146c-34 -40 -72 -56 -126 -56c-77 0 -128 53 -128 151v145c0 127 72 192 212 192c159 0 212 -72 212 -227v-300
c0 -155 -53 -227 -212 -227c-135 0 -212 64 -212 170v63z" />
    <glyph glyph-name="colon" unicode=":" horiz-adv-x="245" 
d="M46 409v169h154v-169h-154zM46 0v169h154v-169h-154z" />
    <glyph glyph-name="semicolon" unicode=";" horiz-adv-x="245" 
d="M17 -128l39 295h163l-93 -295h-109zM44 409v169h154v-169h-154z" />
    <glyph glyph-name="less" unicode="&#x3c;" horiz-adv-x="833" 
d="M704 593v-124l-417 -171l417 -170v-124l-575 237v114z" />
    <glyph glyph-name="equal" unicode="=" horiz-adv-x="833" 
d="M124 464h585v-113h-585v113zM124 245h585v-112h-585v112z" />
    <glyph glyph-name="greater" unicode="&#x3e;" horiz-adv-x="833" 
d="M129 593l575 -238v-114l-575 -237v124l417 170l-417 171v124z" />
    <glyph glyph-name="question" unicode="?" horiz-adv-x="444" 
d="M141 0v169h157v-169h-157zM141 214v118c0 51 13 73 46 104c35 33 64 48 64 95v60c0 26 -7 38 -32 38s-35 -12 -35 -39v-125h-153v114c0 99 68 156 198 156c121 0 185 -46 185 -132v-77c0 -58 -16 -80 -47 -114c-37 -40 -69 -63 -69 -97v-101h-157z" />
    <glyph glyph-name="at" unicode="@" horiz-adv-x="1000" 
d="M585 340c-6 50 -34 76 -78 76c-66 0 -127 -90 -127 -199c0 -55 24 -85 65 -85c53 0 99 40 115 106zM567 128c-37 -54 -81 -77 -144 -77c-106 0 -162 57 -162 168c0 160 107 277 240 277c50 0 87 -20 112 -60l25 45h101l-75 -298c-1 -6 -2 -11 -2 -16c0 -19 10 -29 31 -29
c88 0 168 108 168 234c0 153 -125 264 -316 264c-97 0 -179 -24 -246 -71c-101 -72 -158 -183 -158 -308c0 -197 143 -323 365 -323c106 0 207 31 291 91l47 -66c-101 -76 -214 -114 -338 -114c-127 0 -233 33 -314 95c-102 79 -152 182 -152 314c0 110 35 210 102 292
c96 118 236 182 404 182c114 0 214 -33 283 -87c88 -69 132 -156 132 -268c0 -109 -44 -202 -125 -267c-46 -37 -103 -56 -161 -56c-69 0 -105 26 -108 78z" />
    <glyph glyph-name="A" unicode="A" horiz-adv-x="453" 
d="M-1 0l124 720h224l104 -720h-176l-13 177h-93l-26 -177h-144zM185 291h65l-9 159c-1 17 -6 77 -13 181h-6c-6 -65 -14 -134 -22 -206z" />
    <glyph glyph-name="B" unicode="B" horiz-adv-x="467" 
d="M208 720c160 0 238 -17 238 -140v-64c0 -76 -43 -120 -130 -132v-4c95 -5 130 -45 130 -140v-82c0 -119 -73 -158 -238 -158h-185v720h185zM192 430c6 -1 12 -1 17 -1c46 0 68 20 68 59v75c0 41 -20 55 -69 55h-16v-188zM192 326v-218c7 -1 14 -1 20 -1c45 0 64 17 65 64
v94c0 45 -21 62 -68 62c-5 0 -11 -1 -17 -1z" />
    <glyph glyph-name="C" unicode="C" horiz-adv-x="463" 
d="M20 509c0 155 52 227 211 227c135 0 212 -63 212 -169v-102h-169v98c0 43 -11 62 -43 62s-42 -19 -42 -62v-398c0 -43 10 -62 42 -62s43 19 43 62v113h169v-113c0 -117 -75 -182 -212 -182c-159 0 -211 71 -211 226v300z" />
    <glyph glyph-name="D" unicode="D" horiz-adv-x="466" 
d="M208 720c179 0 239 -38 239 -216v-288c0 -180 -75 -216 -280 -216h-144v720h185zM192 618v-510c9 -1 16 -1 24 -1c46 0 62 13 62 60v392c0 45 -15 59 -57 59h-29z" />
    <glyph glyph-name="E" unicode="E" horiz-adv-x="389" 
d="M23 0v720h347v-114h-178v-152h178v-113h-178v-228h178v-113h-347z" />
    <glyph glyph-name="F" unicode="F" horiz-adv-x="377" 
d="M21 0v720h347v-114h-178v-154h178v-111h-178v-341h-169z" />
    <glyph glyph-name="G" unicode="G" horiz-adv-x="463" 
d="M20 509c0 155 52 227 211 227c135 0 212 -63 212 -169v-102h-169v98c0 43 -11 62 -43 62s-42 -19 -42 -62v-398c0 -43 10 -62 42 -62s43 19 43 62v86h-63v110h232v-361h-102l-10 36c-45 -36 -94 -54 -149 -54c-104 0 -162 76 -162 227v300z" />
    <glyph glyph-name="H" unicode="H" 
d="M23 0v720h169v-263h83v263h169v-720h-169v344h-83v-344h-169z" />
    <glyph glyph-name="I" unicode="I" horiz-adv-x="213" 
d="M191 0h-169v720h169v-720z" />
    <glyph glyph-name="J" unicode="J" horiz-adv-x="458" 
d="M436 720v-511c0 -155 -53 -226 -212 -226c-143 0 -211 64 -211 196v99h168v-113c0 -43 11 -62 43 -62s43 19 43 62v555h169z" />
    <glyph glyph-name="K" unicode="K" horiz-adv-x="456" 
d="M23 0v720h169v-339h2l108 339h163l-113 -316l113 -404h-171l-100 377h-2v-377h-169z" />
    <glyph glyph-name="L" unicode="L" horiz-adv-x="377" 
d="M369 0h-346v720h169v-607h177v-113z" />
    <glyph glyph-name="M" unicode="M" horiz-adv-x="678" 
d="M23 0v720h246l54 -394c6 -42 8 -86 10 -132h4c16 146 25 227 28 243l46 283h244v-720h-156v506c0 18 2 58 7 119h-4c-16 -92 -25 -145 -27 -158l-73 -467h-152l-74 485c-2 14 -9 61 -19 140h-3c1 -59 1 -97 1 -113v-512h-132z" />
    <glyph glyph-name="N" unicode="N" horiz-adv-x="513" 
d="M23 0v720h234l63 -326c7 -35 19 -112 34 -231h5c-2 54 -4 133 -5 238l-1 319h138v-720h-215l-91 433c-3 15 -14 77 -30 184h-3c5 -73 8 -142 8 -206v-411h-137z" />
    <glyph glyph-name="O" unicode="O" 
d="M22 509c0 155 53 227 212 227s212 -72 212 -227v-300c0 -155 -53 -226 -212 -226s-212 71 -212 226v300zM191 563v-398c0 -43 11 -62 43 -62s42 19 42 62v398c0 43 -10 62 -42 62s-43 -19 -43 -62z" />
    <glyph glyph-name="P" unicode="P" horiz-adv-x="469" 
d="M23 0v720h184c167 0 242 -23 242 -164v-106c0 -120 -69 -173 -219 -173c-12 0 -25 0 -38 1v-278h-169zM192 616v-230c7 -1 14 -1 20 -1c46 0 66 17 66 64v108c0 45 -22 59 -75 59h-11z" />
    <glyph glyph-name="Q" unicode="Q" 
d="M23 509c0 155 53 227 212 227s212 -72 212 -227v-300c0 -95 -12 -151 -85 -195v-4c0 -10 4 -10 17 -10h66v-126h-95c-52 0 -80 33 -80 100v10c-13 -1 -24 -1 -35 -1c-159 0 -212 71 -212 226v300zM192 563v-398c0 -43 11 -62 43 -62s42 19 42 62v398c0 43 -10 62 -42 62
s-43 -19 -43 -62z" />
    <glyph glyph-name="R" unicode="R" horiz-adv-x="467" 
d="M277 490v73c0 39 -22 56 -69 56c-5 0 -10 -1 -16 -1v-186c6 -1 12 -1 17 -1c46 0 68 20 68 59zM277 240c0 67 -11 88 -68 88c-5 0 -11 -1 -17 -1v-327h-169v720h213c165 0 210 -42 210 -181c0 -90 -46 -137 -130 -147v-4c92 -2 130 -38 130 -132v-144
c0 -31 1 -66 25 -112h-176c-17 31 -18 75 -18 136v104z" />
    <glyph glyph-name="S" unicode="S" horiz-adv-x="466" 
d="M396 324c42 -43 54 -85 54 -144c0 -132 -63 -196 -217 -196c-145 0 -212 56 -212 181v113h169v-113c0 -43 11 -62 43 -62c31 0 44 20 44 62c0 25 -1 45 -20 63l-185 182c-45 44 -56 83 -56 146c0 116 79 179 219 179c141 0 212 -57 212 -169v-104h-169v101
c0 43 -11 62 -43 62c-36 0 -49 -21 -49 -62c0 -17 9 -37 25 -53z" />
    <glyph glyph-name="T" unicode="T" horiz-adv-x="414" 
d="M291 0h-169v606h-116v114h402v-114h-117v-606z" />
    <glyph glyph-name="U" unicode="U" horiz-adv-x="469" 
d="M446 720v-511c0 -155 -53 -226 -212 -226s-211 71 -211 226v511h169v-555c0 -43 10 -62 42 -62s43 19 43 62v555h169z" />
    <glyph glyph-name="V" unicode="V" horiz-adv-x="450" 
d="M110 0l-109 720h182l33 -439c3 -41 6 -84 8 -128h5c3 43 8 96 16 158l51 409h154l-119 -720h-221z" />
    <glyph glyph-name="W" unicode="W" horiz-adv-x="706" 
d="M91 0l-89 720h171l25 -351c1 -19 5 -78 8 -178h3c6 97 11 154 14 174l52 355h181l34 -396c3 -40 5 -84 5 -133h4c6 84 11 139 14 167l42 362h148l-95 -720h-197l-51 450c-1 9 -4 50 -9 122h-3c-5 -68 -9 -108 -10 -116l-52 -456h-195z" />
    <glyph glyph-name="X" unicode="X" horiz-adv-x="439" 
d="M-9 0l107 385l-99 335h183l32 -160c3 -13 12 -56 19 -132h4c10 79 20 135 28 167l32 125h151l-102 -352l102 -368h-183l-40 200c-5 23 -9 56 -11 99h-3c-5 -41 -11 -78 -18 -110l-44 -189h-158z" />
    <glyph glyph-name="Y" unicode="Y" horiz-adv-x="424" 
d="M123 0v263l-139 457h177l31 -142c10 -44 17 -96 24 -157h4c7 58 16 117 30 178l29 121h157l-144 -457v-263h-169z" />
    <glyph glyph-name="Z" unicode="Z" horiz-adv-x="396" 
d="M10 0v122l190 490h-183v108h363v-108l-196 -504h191v-108h-365z" />
    <glyph glyph-name="bracketleft" unicode="[" horiz-adv-x="329" 
d="M72 -80v800h237v-113h-101v-573h101v-114h-237z" />
    <glyph glyph-name="backslash" unicode="\" horiz-adv-x="278" 
d="M202 -93l-194 829h85l194 -829h-85z" />
    <glyph glyph-name="bracketright" unicode="]" horiz-adv-x="329" 
d="M259 -80h-238v114h101v573h-101v113h238v-800z" />
    <glyph glyph-name="asciicircum" unicode="^" horiz-adv-x="1000" 
d="M429 714h141l227 -275h-129l-168 167l-169 -167h-129z" />
    <glyph glyph-name="underscore" unicode="_" horiz-adv-x="500" 
d="M0 -119h500v-117h-500v117z" />
    <glyph glyph-name="quoteleft" unicode="&#x2018;" horiz-adv-x="234" 
d="M207 468h-103l-79 252h148z" />
    <glyph glyph-name="a" unicode="a" horiz-adv-x="425" 
d="M244 65c-11 -47 -54 -77 -109 -77c-90 0 -115 54 -115 157c0 114 9 132 109 187c79 44 117 54 117 107c0 30 -11 45 -33 45s-33 -16 -33 -48v-64h-160v74c0 91 72 144 196 144c128 0 189 -54 189 -165v-372c0 -15 2 -32 5 -53h-158l-5 65h-3zM245 166v124
c-41 -35 -66 -46 -66 -79v-45c0 -33 8 -48 33 -48s33 16 33 48z" />
    <glyph glyph-name="b" unicode="b" horiz-adv-x="426" 
d="M180 0h-160v720h158v-131c0 -7 -1 -36 -4 -87c23 57 62 86 117 86c92 0 115 -54 115 -164v-273c0 -110 -23 -164 -115 -164c-57 0 -97 30 -111 87v-74zM247 172v235c0 34 -8 49 -33 49s-33 -17 -33 -49v-235c0 -32 8 -48 33 -48s33 14 33 48z" />
    <glyph glyph-name="c" unicode="c" horiz-adv-x="422" 
d="M404 223v-64c0 -116 -64 -173 -193 -173c-144 0 -193 65 -193 205v194c0 140 48 205 193 205c124 0 193 -57 193 -160v-58h-160v67c0 32 -11 48 -33 48s-33 -16 -33 -48v-297c0 -32 9 -48 33 -48c23 0 33 16 33 48v81h160z" />
    <glyph glyph-name="d" unicode="d" horiz-adv-x="425" 
d="M179 172c0 -34 8 -48 33 -48s33 16 33 48v235c0 32 -8 49 -33 49s-33 -15 -33 -49v-235zM246 0v74c-14 -57 -54 -87 -111 -87c-92 0 -116 54 -116 164v273c0 110 24 164 116 164c55 0 95 -29 116 -86c-2 54 -3 85 -3 93v125h157v-720h-159z" />
    <glyph glyph-name="e" unicode="e" horiz-adv-x="422" 
d="M244 369v70c0 32 -11 48 -33 48s-33 -16 -33 -48v-70h66zM404 223v-64c0 -116 -64 -173 -193 -173c-144 0 -193 65 -193 205v194c0 140 49 205 193 205c127 0 193 -56 193 -165v-154h-226v-129c0 -32 9 -48 33 -48c23 0 33 16 33 48v81h160z" />
    <glyph glyph-name="f" unicode="f" horiz-adv-x="258" 
d="M47 0v471h-33v105h33v16c0 86 38 128 118 128h91v-101h-5c-32 0 -44 -8 -44 -34v-9h47v-105h-47v-471h-160z" />
    <glyph glyph-name="g" unicode="g" horiz-adv-x="425" 
d="M406 75c0 -141 -53 -205 -194 -205c-128 0 -193 48 -193 134v46h160v-29c0 -32 11 -48 33 -48c21 0 34 17 34 48v136c-18 -58 -54 -87 -111 -87c-92 0 -116 54 -116 164v190c0 110 24 164 116 164c55 0 94 -29 115 -86c-2 14 -3 29 -3 44v30h159v-501zM179 407v-154
c0 -34 8 -49 33 -49s33 17 33 49v154c0 32 -8 49 -33 49s-33 -15 -33 -49z" />
    <glyph glyph-name="h" unicode="h" horiz-adv-x="425" 
d="M21 0v720h160v-155c0 -5 -2 -24 -3 -58c29 55 67 81 121 81c89 0 107 -58 107 -164v-424h-159v407c0 34 -8 49 -33 49s-33 -17 -33 -49v-407h-160z" />
    <glyph glyph-name="i" unicode="i" horiz-adv-x="200" 
d="M180 616h-160v104h160v-104zM180 0h-160v576h160v-576z" />
    <glyph glyph-name="j" unicode="j" horiz-adv-x="200" 
d="M181 616h-160v104h160v-104zM21 576h160v-562c0 -97 -27 -144 -120 -144h-115v102h46c28 0 29 19 29 42v562z" />
    <glyph glyph-name="k" unicode="k" horiz-adv-x="406" 
d="M181 0h-161v720h161v-399l84 255h154l-92 -256l98 -320h-163l-81 314v-314z" />
    <glyph glyph-name="l" unicode="l" horiz-adv-x="200" 
d="M180 0h-160v720h160v-720z" />
    <glyph glyph-name="m" unicode="m" horiz-adv-x="644" 
d="M20 0v576h154v-67h1c20 51 60 79 113 79c59 0 95 -27 108 -79h1c20 52 60 79 113 79c99 0 113 -60 113 -164v-424h-157v407c0 34 -8 49 -33 49s-33 -17 -33 -49v-407h-156v407c0 34 -8 49 -33 49s-33 -17 -33 -49v-407h-158z" />
    <glyph glyph-name="n" unicode="n" horiz-adv-x="426" 
d="M406 0h-160v407c0 34 -8 49 -33 49s-33 -17 -33 -49v-407h-160v576h156v-67h2c30 53 68 79 121 79c89 0 107 -58 107 -164v-424z" />
    <glyph glyph-name="o" unicode="o" horiz-adv-x="422" 
d="M19 385c0 140 47 205 192 205c144 0 193 -65 193 -205v-194c0 -140 -48 -205 -193 -205c-144 0 -192 65 -192 205v194zM178 439v-297c0 -32 9 -48 33 -48s33 16 33 48v297c0 32 -11 48 -33 48s-33 -16 -33 -48z" />
    <glyph glyph-name="p" unicode="p" horiz-adv-x="425" 
d="M21 -130v706h156v-71c25 55 64 83 114 83c92 0 115 -54 115 -164v-271c0 -108 -25 -165 -112 -165c-54 0 -91 27 -113 79v-197h-160zM181 407v-237c0 -32 8 -49 33 -49s33 15 33 49v237c0 34 -8 49 -33 49s-33 -17 -33 -49z" />
    <glyph glyph-name="q" unicode="q" horiz-adv-x="425" 
d="M406 -130h-160v197c-22 -52 -60 -79 -114 -79c-87 0 -111 57 -111 165v271c0 110 23 164 115 164c50 0 89 -28 114 -83v71h156v-706zM246 407c0 32 -8 49 -33 49s-33 -15 -33 -49v-237c0 -34 8 -49 33 -49s33 17 33 49v237z" />
    <glyph glyph-name="r" unicode="r" horiz-adv-x="420" 
d="M20 0v576h156v-67h1c27 53 67 79 120 79c89 0 106 -59 106 -164v-158h-159v141c0 33 -8 49 -31 49c-25 0 -33 -17 -33 -49v-407h-160z" />
    <glyph glyph-name="s" unicode="s" horiz-adv-x="422" 
d="M403 372h-158v67c0 35 -8 52 -33 52s-36 -16 -36 -51c0 -49 30 -57 101 -102c92 -58 127 -86 127 -184c0 -108 -69 -168 -194 -168c-130 0 -191 55 -191 173v64h158v-81c0 -34 10 -49 33 -49s36 18 36 51c0 59 -34 68 -93 105c-91 57 -136 84 -136 180
c0 104 70 161 195 161c123 0 191 -56 191 -154v-64z" />
    <glyph glyph-name="t" unicode="t" horiz-adv-x="301" 
d="M219 144c0 -36 6 -43 58 -43h13v-101h-103c-98 0 -128 42 -128 144v327h-52v105h52v105h160v-105h71v-105h-71v-327z" />
    <glyph glyph-name="u" unicode="u" horiz-adv-x="426" 
d="M20 576h160v-407c0 -34 8 -49 33 -49s33 17 33 49v407h160v-576h-156v67h-2c-30 -53 -69 -79 -122 -79c-89 0 -106 60 -106 165v423z" />
    <glyph glyph-name="v" unicode="v" horiz-adv-x="392" 
d="M101 0l-108 576h161l41 -304c2 -16 6 -63 10 -142h4c6 87 11 137 13 150l41 296h136l-104 -576h-194z" />
    <glyph glyph-name="w" unicode="w" horiz-adv-x="667" 
d="M88 0l-87 576h163l23 -249c2 -20 7 -85 12 -196h3c9 92 17 157 22 196l31 249h181l36 -316c4 -39 7 -81 10 -129h4c3 52 7 119 15 205l22 240h140l-81 -576h-198l-36 293c-2 14 -7 71 -14 170h-3c-8 -106 -13 -173 -17 -201l-34 -262h-192z" />
    <glyph glyph-name="x" unicode="x" horiz-adv-x="393" 
d="M-16 0l100 306l-91 270h166l32 -116c6 -22 10 -57 14 -106h4c7 48 13 84 19 106l31 116h141l-92 -270l98 -306h-165l-44 165c-4 16 -8 43 -9 83h-4c-4 -39 -9 -68 -13 -84l-44 -164h-143z" />
    <glyph glyph-name="y" unicode="y" horiz-adv-x="388" 
d="M6 -130v102h85c18 0 27 8 27 23c0 6 -2 15 -5 27l-122 554h162l37 -239c6 -38 10 -94 14 -171h4c5 86 10 150 17 191l36 219h135l-122 -577c-18 -86 -43 -129 -127 -129h-141z" />
    <glyph glyph-name="z" unicode="z" horiz-adv-x="355" 
d="M13 0v97l149 374h-146v105h325v-81l-154 -390h156v-105h-330z" />
    <glyph glyph-name="braceleft" unicode="{" horiz-adv-x="500" 
d="M436 721v-118c-7 0 -14 1 -20 1c-68 0 -81 -21 -81 -89v-117c0 -85 -20 -122 -103 -139c84 -17 103 -53 103 -138v-118c0 -67 13 -88 80 -88c7 0 14 1 21 1v-118c-14 0 -27 -1 -40 -1c-64 0 -112 6 -146 24c-47 25 -52 68 -52 137v125c0 86 -28 118 -106 118
c-5 0 -12 -1 -18 -1v118c6 0 12 -1 18 -1c78 0 106 34 106 119v124c0 69 5 113 52 138c34 18 83 24 147 24c12 0 25 -1 39 -1z" />
    <glyph glyph-name="bar" unicode="|" horiz-adv-x="500" 
d="M192 764h117v-1000h-117v1000z" />
    <glyph glyph-name="braceright" unicode="}" horiz-adv-x="500" 
d="M65 721c14 0 27 1 39 1c64 0 112 -6 147 -24c47 -25 52 -69 52 -138v-124c0 -86 28 -119 106 -119c6 0 12 1 18 1v-118c-6 0 -12 1 -18 1c-78 0 -106 -33 -106 -118v-125c0 -69 -5 -113 -52 -138c-33 -18 -80 -23 -142 -23c-14 0 -29 1 -44 1v118c8 0 15 -1 21 -1
c68 0 80 21 80 88v118c0 84 19 121 103 138c-84 17 -103 54 -103 139v117c0 66 -12 89 -78 89c-7 0 -15 -1 -23 -1v118z" />
    <glyph glyph-name="asciitilde" unicode="~" horiz-adv-x="833" 
d="M747 400v-124c-64 -44 -124 -67 -184 -67c-30 0 -59 5 -84 14c-72 25 -137 50 -205 50c-59 0 -117 -27 -187 -77v124c71 46 133 70 189 70s101 -14 144 -28c48 -16 94 -36 146 -36c58 0 115 26 181 74z" />
    <glyph glyph-name="exclamdown" unicode="&#xa1;" horiz-adv-x="269" 
d="M58 720h153v-168h-153v168zM58 509h153v-509h-153v509z" />
    <glyph glyph-name="cent" unicode="&#xa2;" 
d="M427 236v-65c0 -107 -50 -159 -163 -171v-109h-60v109c-126 14 -163 72 -163 204v193c0 132 38 191 163 204v103h60v-103c109 -12 163 -64 163 -159v-58h-160v68c0 32 -12 48 -34 48s-33 -16 -33 -48v-298c0 -32 9 -47 33 -47c23 0 34 15 34 47v82h160z" />
    <glyph glyph-name="sterling" unicode="&#xa3;" 
d="M27 0v118c44 23 66 64 66 122c0 19 -3 41 -9 65h-57v90h42c-23 77 -33 137 -33 176c0 107 71 164 202 164c69 0 126 -19 156 -47c40 -36 43 -76 43 -136v-83h-164v109c0 31 -9 44 -39 44c-31 0 -41 -19 -41 -61c0 -65 29 -115 41 -166h203v-90h-193c3 -17 4 -32 4 -44
c0 -71 -37 -122 -104 -143l1 -8c32 5 64 8 97 8h195v-118h-410z" />
    <glyph glyph-name="fraction" unicode="&#x2044;" horiz-adv-x="157" 
d="M235 736h77l-392 -753h-75z" />
    <glyph glyph-name="yen" unicode="&#xa5;" 
d="M146 0v263h-113v67h93l-16 57h-77v67h55l-80 266h176l31 -142c10 -44 17 -96 24 -157h4c7 58 17 117 31 178l29 121h156l-86 -266h55v-67h-77l-16 -57h93v-67h-113v-263h-169z" />
    <glyph glyph-name="florin" unicode="&#x192;" 
d="M404 626h-35c-56 0 -60 -18 -60 -84v-105h95v-90h-95v-286c0 -147 -44 -176 -196 -176c-17 0 -36 0 -56 1v111h32c47 0 58 7 58 70v280h-90v90h90v126c0 134 35 173 187 173c17 0 40 0 70 -1v-109z" />
    <glyph glyph-name="section" unicode="&#xa7;" 
d="M306 570c0 47 -23 66 -75 66c-47 0 -71 -17 -71 -53c0 -41 27 -55 92 -81l71 -29c91 -37 113 -68 113 -138c0 -68 -4 -104 -55 -127c42 -22 55 -54 55 -109c0 -114 -67 -170 -205 -170c-152 0 -199 59 -199 184v67h126v-85c0 -45 24 -64 76 -64s76 14 76 54
c0 47 -29 56 -95 83l-71 29c-95 39 -112 71 -112 159c0 56 9 86 51 104c-39 27 -51 58 -51 107c0 114 64 169 203 169c74 0 128 -18 159 -47c36 -34 37 -72 37 -125v-69h-125v75zM160 420l-1 -38v-15c0 -66 21 -67 102 -102l48 -20v39c0 70 -3 73 -84 108z" />
    <glyph glyph-name="currency" unicode="&#xa4;" 
d="M319 279h-104v-114c0 -43 5 -62 37 -62s38 19 38 62v57h169v-57c0 -117 -70 -182 -207 -182c-159 0 -206 71 -206 226v70h-63l28 67h35v57h-61l28 67h33v39c0 155 47 227 206 227c135 0 207 -63 207 -169v-48h-169v44c0 43 -6 62 -38 62s-37 -19 -37 -62v-93h183l-27 -67
h-156v-57h132z" />
    <glyph glyph-name="quotesingle" unicode="'" horiz-adv-x="181" 
d="M37 702h107v-274h-107v274z" />
    <glyph glyph-name="quotedblleft" unicode="&#x201c;" horiz-adv-x="426" 
d="M400 468h-104l-79 252h148zM207 468h-103l-80 252h149z" />
    <glyph glyph-name="guillemotleft" unicode="&#xab;" horiz-adv-x="393" 
d="M218 218v140l152 152v-146l-76 -75l76 -76v-147zM19 218v140l153 152v-146l-77 -75l77 -76v-147z" />
    <glyph glyph-name="guilsinglleft" unicode="&#x2039;" horiz-adv-x="194" 
d="M19 218v140l152 152v-146l-77 -75l77 -76v-147z" />
    <glyph glyph-name="guilsinglright" unicode="&#x203a;" horiz-adv-x="194" 
d="M173 218l-152 -152v147l76 76l-76 75v146l152 -152v-140z" />
    <glyph glyph-name="fi" unicode="&#xfb01;" horiz-adv-x="455" 
d="M428 0h-159v576h159v-576zM428 616h-159v104h159v-104zM41 0v471h-33v105h33v16c0 86 38 128 118 128h91v-101h-5c-32 0 -44 -8 -44 -34v-9h47v-105h-47v-471h-160z" />
    <glyph glyph-name="fl" unicode="&#xfb02;" horiz-adv-x="455" 
d="M41 0v471h-33v105h33v16c0 86 38 128 118 128h91v-101h-5c-32 0 -44 -8 -44 -34v-9h47v-105h-47v-471h-160zM428 0h-159v720h159v-720z" />
    <glyph glyph-name="endash" unicode="&#x2013;" horiz-adv-x="500" 
d="M0 231v113h500v-113h-500z" />
    <glyph glyph-name="dagger" unicode="&#x2020;" 
d="M297 720v-177h138v-100h-138v-468l-63 -48l-63 48v468h-139v100h139v177h126z" />
    <glyph glyph-name="daggerdbl" unicode="&#x2021;" 
d="M171 -67v177h-139v100h139v69l63 46l63 -46v-69h138v-100h-138v-177h-126zM297 720v-177h138v-100h-138v-69l-63 -48l-63 48v69h-139v100h139v177h126z" />
    <glyph glyph-name="periodcentered" unicode="&#xb7;" horiz-adv-x="234" 
d="M117 442c46 0 83 -38 83 -83s-38 -83 -83 -83c-44 0 -83 36 -83 83s39 83 83 83z" />
    <glyph glyph-name="paragraph" unicode="&#xb6;" horiz-adv-x="500" 
d="M487 722v-60h-52v-662h-85v662h-74v-662h-85v383c-109 4 -177 73 -177 169c0 100 72 170 190 170h283z" />
    <glyph glyph-name="bullet" unicode="&#x2022;" horiz-adv-x="590" 
d="M150 372c0 80 65 144 145 144c79 0 144 -64 144 -144c0 -79 -65 -145 -145 -145s-144 65 -144 145z" />
    <glyph glyph-name="quotesinglbase" unicode="&#x201a;" horiz-adv-x="234" 
d="M23 -85l35 252h148l-79 -252h-104z" />
    <glyph glyph-name="quotedblbase" unicode="&#x201e;" horiz-adv-x="426" 
d="M23 -85l34 252h149l-80 -252h-103zM216 -85l34 252h148l-79 -252h-103z" />
    <glyph glyph-name="quotedblright" unicode="&#x201d;" horiz-adv-x="426" 
d="M29 468l34 252h148l-79 -252h-103zM221 468l35 252h148l-79 -252h-104z" />
    <glyph glyph-name="guillemotright" unicode="&#xbb;" horiz-adv-x="393" 
d="M173 218l-153 -152v147l77 76l-77 75v146l153 -152v-140zM372 218l-153 -152v147l77 76l-77 75v146l153 -152v-140z" />
    <glyph glyph-name="ellipsis" unicode="&#x2026;" horiz-adv-x="1000" 
d="M90 0v169h154v-169h-154zM423 0v169h154v-169h-154zM757 0v169h154v-169h-154z" />
    <glyph glyph-name="perthousand" unicode="&#x2030;" horiz-adv-x="931" 
d="M176 437v197c0 23 -7 33 -25 33c-19 0 -24 -11 -24 -33v-197c0 -22 5 -33 24 -33c18 0 25 10 25 33zM23 610c0 83 32 125 128 125s128 -42 128 -125v-149c0 -83 -32 -125 -128 -125s-128 42 -128 125v149zM426 735h77l-291 -751h-75zM360 258c0 83 32 124 128 124
s128 -41 128 -124v-149c0 -83 -32 -125 -128 -125s-128 42 -128 125v149zM513 84v198c0 23 -7 33 -25 33c-19 0 -24 -11 -24 -33v-198c0 -22 5 -33 24 -33c18 0 25 10 25 33zM650 258c0 83 32 124 128 124s128 -41 128 -124v-149c0 -83 -32 -125 -128 -125s-128 42 -128 125
v149zM803 84v198c0 23 -7 33 -25 33c-19 0 -24 -11 -24 -33v-198c0 -22 5 -33 24 -33c18 0 25 10 25 33z" />
    <glyph glyph-name="questiondown" unicode="&#xbf;" horiz-adv-x="444" 
d="M305 506v-118c0 -51 -13 -73 -46 -104c-35 -33 -64 -48 -64 -95v-60c0 -26 7 -38 32 -38s36 12 36 39v125h153v-114c0 -99 -69 -156 -199 -156c-121 0 -185 46 -185 132v77c0 58 16 80 47 114c37 40 69 63 69 97v101h157zM305 720v-169h-157v169h157z" />
    <glyph glyph-name="grave" unicode="`" horiz-adv-x="500" 
d="M229 611l-121 109h162l63 -109h-104z" />
    <glyph glyph-name="acute" unicode="&#xb4;" horiz-adv-x="500" 
d="M271 611h-104l63 109h161z" />
    <glyph glyph-name="circumflex" unicode="&#x2c6;" horiz-adv-x="500" 
d="M203 611h-113l101 109h116l103 -109h-112l-48 44z" />
    <glyph glyph-name="tilde" unicode="&#x2dc;" horiz-adv-x="500" 
d="M413 715v-8c0 -56 -38 -91 -101 -91c-53 0 -92 31 -124 31c-20 0 -32 -10 -32 -29v-2h-69v8c0 55 39 91 101 91c53 0 92 -31 124 -31c20 0 32 10 32 29v2h69z" />
    <glyph glyph-name="macron" unicode="&#xaf;" horiz-adv-x="500" 
d="M111 634v63h278v-63h-278z" />
    <glyph glyph-name="breve" unicode="&#x2d8;" horiz-adv-x="500" 
d="M197 720v-2c0 -31 19 -48 53 -48s53 17 53 48v2h84v-2c0 -73 -45 -109 -137 -109c-91 0 -137 37 -137 104v7h84z" />
    <glyph glyph-name="dotaccent" unicode="&#x2d9;" horiz-adv-x="500" 
d="M189 615v101h122v-101h-122z" />
    <glyph glyph-name="dieresis" unicode="&#xa8;" horiz-adv-x="500" 
d="M283 616v98h117v-98h-117zM99 616v98h118v-98h-118z" />
    <glyph glyph-name="ring" unicode="&#x2da;" horiz-adv-x="500" 
d="M145 716c0 57 47 104 105 104c57 0 105 -47 105 -104c0 -58 -48 -105 -105 -105c-58 0 -105 47 -105 105zM210 715c0 -21 17 -39 40 -39c22 0 40 18 40 39c0 23 -18 40 -40 40c-23 0 -40 -17 -40 -40z" />
    <glyph glyph-name="cedilla" unicode="&#xb8;" horiz-adv-x="500" 
d="M111 -130l102 97h108l-58 -97h-152z" />
    <glyph glyph-name="hungarumlaut" unicode="&#x2dd;" horiz-adv-x="500" 
d="M367 611h-85l51 109h133zM196 611h-85l51 109h133z" />
    <glyph glyph-name="ogonek" unicode="&#x2db;" horiz-adv-x="500" 
d="M329 0c-23 -25 -34 -52 -34 -78c0 -19 7 -37 22 -52h-121c-8 13 -12 25 -12 37c0 32 20 67 60 93h85z" />
    <glyph glyph-name="caron" unicode="&#x2c7;" horiz-adv-x="500" 
d="M203 720l47 -44l48 44h112l-103 -109h-116l-101 109h113z" />
    <glyph glyph-name="emdash" unicode="&#x2014;" horiz-adv-x="1000" 
d="M0 231v113h1000v-113h-1000z" />
    <glyph glyph-name="AE" unicode="&#xc6;" horiz-adv-x="656" 
d="M637 720v-114h-178v-152h178v-113h-178v-228h178v-113h-348v178h-114l-38 -178h-148l180 720h468zM289 294v317h-11l-75 -317h86z" />
    <glyph glyph-name="ordfeminine" unicode="&#xaa;" horiz-adv-x="319" 
d="M183 362c-8 -32 -40 -53 -82 -53c-67 0 -86 37 -86 109c0 80 7 93 82 131c59 31 88 38 88 75c0 21 -9 32 -25 32c-17 0 -25 -11 -25 -34v-45h-120v52c0 64 54 101 147 101c96 0 142 -38 142 -116v-260c0 -10 1 -22 4 -37h-119l-4 45h-2zM184 433v87
c-31 -25 -50 -32 -50 -55v-32c0 -23 6 -33 25 -33s25 11 25 33z" />
    <glyph glyph-name="Lslash" unicode="&#x141;" horiz-adv-x="400" 
d="M392 0h-346v262l-46 -32v117l46 33v340h169v-261l88 63v-119l-88 -61v-229h177v-113z" />
    <glyph glyph-name="Oslash" unicode="&#xd8;" 
d="M20 509c0 155 52 227 212 227c37 0 70 -4 103 -16l26 65h100l-51 -121c27 -32 34 -81 34 -155v-300c0 -155 -52 -226 -212 -226c-36 0 -69 3 -103 17l-28 -66h-99l50 120c-27 39 -32 89 -32 155v300zM281 545c0 6 1 12 1 18c0 43 -15 62 -50 62s-48 -19 -48 -62v-252z
M281 165v250l-97 -242v-9c0 -43 13 -61 48 -61c36 0 49 19 49 62z" />
    <glyph glyph-name="OE" unicode="&#x152;" horiz-adv-x="641" 
d="M189 563v-398c0 -43 10 -62 42 -62s43 19 43 62v398c0 43 -11 62 -43 62s-42 -19 -42 -62zM443 113h178v-113h-283c-32 -13 -67 -17 -107 -17c-160 0 -211 71 -211 226v300c0 155 51 227 211 227c37 0 73 -4 108 -16h282v-114h-178v-152h178v-113h-178v-228z" />
    <glyph glyph-name="ordmasculine" unicode="&#xba;" horiz-adv-x="317" 
d="M14 586c0 98 36 144 144 144s145 -46 145 -144v-135c0 -98 -36 -144 -145 -144c-108 0 -144 46 -144 144v135zM134 624v-208c0 -22 6 -33 24 -33s25 11 25 33v208c0 23 -8 34 -25 34c-16 0 -24 -11 -24 -34z" />
    <glyph glyph-name="ae" unicode="&#xe6;" horiz-adv-x="644" 
d="M245 166v124c-41 -35 -66 -46 -66 -79v-45c0 -33 8 -48 33 -48s33 16 33 48zM465 369v70c0 32 -12 48 -34 48s-32 -16 -32 -48v-70h66zM625 223v-64c0 -114 -57 -173 -162 -173c-62 0 -108 19 -138 58c-35 -38 -84 -58 -144 -58c-131 0 -162 59 -162 174
c0 106 22 124 109 172c80 44 118 54 118 107c0 30 -11 45 -33 45s-33 -16 -33 -48v-64h-161v70c0 96 62 148 176 148c57 0 99 -17 130 -53c36 39 75 53 130 53c107 0 170 -61 170 -165v-153h-226v-130c0 -32 8 -48 32 -48c23 0 34 16 34 48v81h160z" />
    <glyph glyph-name="dotlessi" unicode="&#x131;" horiz-adv-x="200" 
d="M180 0h-160v576h160v-576z" />
    <glyph glyph-name="lslash" unicode="&#x142;" horiz-adv-x="256" 
d="M208 448l48 33v-89l-48 -33v-359h-160v277l-48 -33v89l48 33v354h160v-272z" />
    <glyph glyph-name="oslash" unicode="&#xf8;" horiz-adv-x="422" 
d="M18 385c0 140 48 205 193 205c21 0 42 -2 64 -5l25 71h76l-34 -101c52 -35 62 -86 62 -170v-194c0 -140 -48 -205 -193 -205c-22 0 -43 2 -65 7l-24 -71h-75l33 98c-51 37 -62 88 -62 171v194zM174 439v-198l74 201c0 31 -11 45 -37 45c-24 0 -37 -16 -37 -48zM247 142
v192l-73 -206c2 -21 16 -34 37 -34c31 0 36 18 36 48z" />
    <glyph glyph-name="oe" unicode="&#x153;" horiz-adv-x="643" 
d="M178 439v-297c0 -32 9 -48 33 -48s33 16 33 48v297c0 32 -11 48 -33 48s-33 -16 -33 -48zM19 385c0 137 49 205 176 205c57 0 98 -16 130 -53c36 38 75 53 129 53c107 0 170 -61 170 -165v-153h-226v-130c0 -32 9 -48 33 -48c23 0 33 16 33 48v81h160v-64
c0 -114 -58 -174 -163 -174c-60 0 -104 18 -136 59c-32 -39 -78 -59 -136 -59c-118 0 -170 69 -170 206v194zM464 370v69c0 32 -11 48 -33 48s-33 -16 -33 -48v-69h66z" />
    <glyph glyph-name="germandbls" unicode="&#xdf;" horiz-adv-x="412" 
d="M20 0v569c0 111 61 166 182 166c119 0 185 -57 185 -151v-49c0 -41 -6 -69 -28 -90c-15 -15 -38 -23 -69 -27v-5c79 -11 97 -45 97 -123v-168c0 -89 -35 -122 -118 -122h-73v90h6c21 0 30 9 30 35v194c0 25 -9 36 -30 36h-6v106h6c21 0 30 9 30 35v107c0 25 -8 35 -29 35
c-20 0 -28 -10 -28 -35v-603h-155z" />
    <glyph glyph-name="Aacute" unicode="&#xc1;" horiz-adv-x="453" 
d="M-1 0l124 720h224l104 -720h-176l-13 177h-93l-26 -177h-144zM185 291h65l-9 159c-1 17 -6 77 -13 181h-6c-6 -65 -14 -134 -22 -206zM255 757h-104l63 109h161z" />
    <glyph glyph-name="Acircumflex" unicode="&#xc2;" horiz-adv-x="453" 
d="M-1 0l124 720h224l104 -720h-176l-13 177h-93l-26 -177h-144zM185 291h65l-9 159c-1 17 -6 77 -13 181h-6c-6 -65 -14 -134 -22 -206zM187 757h-113l101 109h116l103 -109h-112l-48 44z" />
    <glyph glyph-name="Adieresis" unicode="&#xc4;" horiz-adv-x="453" 
d="M-1 0l124 720h224l104 -720h-176l-13 177h-93l-26 -177h-144zM185 291h65l-9 159c-1 17 -6 77 -13 181h-6c-6 -65 -14 -134 -22 -206zM267 762v98h117v-98h-117zM83 762v98h118v-98h-118z" />
    <glyph glyph-name="Agrave" unicode="&#xc0;" horiz-adv-x="453" 
d="M-1 0l124 720h224l104 -720h-176l-13 177h-93l-26 -177h-144zM185 291h65l-9 159c-1 17 -6 77 -13 181h-6c-6 -65 -14 -134 -22 -206zM213 757l-121 109h162l63 -109h-104z" />
    <glyph glyph-name="Aring" unicode="&#xc5;" horiz-adv-x="453" 
d="M-1 0l124 708h224l104 -708h-176l-13 177h-93l-26 -177h-144zM185 291h65l-9 159c-1 17 -6 77 -13 181h-6c-6 -65 -14 -134 -22 -206zM138 826c0 53 45 98 97 98s97 -46 97 -98c0 -53 -44 -96 -97 -96s-97 43 -97 96zM199 826c0 -19 17 -35 36 -35s36 16 36 35
c0 20 -16 36 -36 36s-36 -16 -36 -36z" />
    <glyph glyph-name="Atilde" unicode="&#xc3;" horiz-adv-x="453" 
d="M-1 0l124 720h224l104 -720h-176l-13 177h-93l-26 -177h-144zM185 291h65l-9 159c-1 17 -6 77 -13 181h-6c-6 -65 -14 -134 -22 -206zM397 861v-8c0 -56 -38 -91 -101 -91c-53 0 -92 31 -124 31c-20 0 -32 -10 -32 -29v-2h-69v8c0 55 39 91 101 91c53 0 92 -31 124 -31
c20 0 32 10 32 29v2h69z" />
    <glyph glyph-name="Ccedilla" unicode="&#xc7;" horiz-adv-x="463" 
d="M20 509c0 155 52 227 211 227c135 0 212 -63 212 -169v-102h-169v98c0 43 -11 62 -43 62s-42 -19 -42 -62v-398c0 -43 10 -62 42 -62s43 19 43 62v113h169v-113c0 -117 -75 -182 -212 -182c-159 0 -211 71 -211 226v300zM89 -130l102 97h108l-58 -97h-152z" />
    <glyph glyph-name="Eacute" unicode="&#xc9;" horiz-adv-x="389" 
d="M23 0v720h347v-114h-178v-152h178v-113h-178v-228h178v-113h-347zM221 757h-104l63 109h161z" />
    <glyph glyph-name="Ecircumflex" unicode="&#xca;" horiz-adv-x="389" 
d="M23 0v720h347v-114h-178v-152h178v-113h-178v-228h178v-113h-347zM153 757h-113l101 109h116l103 -109h-112l-48 44z" />
    <glyph glyph-name="Edieresis" unicode="&#xcb;" horiz-adv-x="389" 
d="M23 0v720h347v-114h-178v-152h178v-113h-178v-228h178v-113h-347zM233 762v98h117v-98h-117zM49 762v98h118v-98h-118z" />
    <glyph glyph-name="Egrave" unicode="&#xc8;" horiz-adv-x="389" 
d="M23 0v720h347v-114h-178v-152h178v-113h-178v-228h178v-113h-347zM179 757l-121 109h162l63 -109h-104z" />
    <glyph glyph-name="Eth" unicode="&#xd0;" horiz-adv-x="489" 
d="M231 720c179 0 239 -38 239 -216v-288c0 -180 -75 -216 -280 -216h-144v348h-46v104h46v268h185zM212 348v-240c9 -1 18 -1 25 -1c51 0 68 13 68 60v392c0 45 -17 59 -62 59h-31v-166h60v-104h-60z" />
    <glyph glyph-name="Euro" unicode="&#x20ac;" 
d="M319 279h-104v-114c0 -43 5 -62 37 -62s38 19 38 62v57h169v-57c0 -117 -70 -182 -207 -182c-159 0 -206 71 -206 226v70h-63l28 67h35v57h-61l28 67h33v39c0 155 47 227 206 227c135 0 207 -63 207 -169v-48h-169v44c0 43 -6 62 -38 62s-37 -19 -37 -62v-93h183l-27 -67
h-156v-57h132z" />
    <glyph glyph-name="Iacute" unicode="&#xcd;" horiz-adv-x="213" 
d="M191 0h-169v720h169v-720zM128 757h-104l63 109h161z" />
    <glyph glyph-name="Icircumflex" unicode="&#xce;" horiz-adv-x="213" 
d="M191 0h-169v720h169v-720zM60 757h-113l101 109h116l103 -109h-112l-48 44z" />
    <glyph glyph-name="Idieresis" unicode="&#xcf;" horiz-adv-x="213" 
d="M191 0h-169v720h169v-720zM140 762v98h117v-98h-117zM-44 762v98h118v-98h-118z" />
    <glyph glyph-name="Igrave" unicode="&#xcc;" horiz-adv-x="213" 
d="M191 0h-169v720h169v-720zM86 757l-121 109h162l63 -109h-104z" />
    <glyph glyph-name="Ntilde" unicode="&#xd1;" horiz-adv-x="513" 
d="M23 0v720h234l63 -326c7 -35 19 -112 34 -231h5c-2 54 -4 133 -5 238l-1 319h138v-720h-215l-91 433c-3 15 -14 77 -30 184h-3c5 -73 8 -142 8 -206v-411h-137zM428 861v-8c0 -56 -38 -91 -101 -91c-53 0 -92 31 -124 31c-20 0 -32 -10 -32 -29v-2h-69v8
c0 55 39 91 101 91c53 0 92 -31 124 -31c20 0 32 10 32 29v2h69z" />
    <glyph glyph-name="Oacute" unicode="&#xd3;" 
d="M22 509c0 155 53 227 212 227s212 -72 212 -227v-300c0 -155 -53 -226 -212 -226s-212 71 -212 226v300zM191 563v-398c0 -43 11 -62 43 -62s42 19 42 62v398c0 43 -10 62 -42 62s-43 -19 -43 -62zM255 757h-104l63 109h161z" />
    <glyph glyph-name="Ocircumflex" unicode="&#xd4;" 
d="M22 509c0 155 53 227 212 227s212 -72 212 -227v-300c0 -155 -53 -226 -212 -226s-212 71 -212 226v300zM191 563v-398c0 -43 11 -62 43 -62s42 19 42 62v398c0 43 -10 62 -42 62s-43 -19 -43 -62zM187 757h-113l101 109h116l103 -109h-112l-48 44z" />
    <glyph glyph-name="Odieresis" unicode="&#xd6;" 
d="M22 509c0 155 53 227 212 227s212 -72 212 -227v-300c0 -155 -53 -226 -212 -226s-212 71 -212 226v300zM191 563v-398c0 -43 11 -62 43 -62s42 19 42 62v398c0 43 -10 62 -42 62s-43 -19 -43 -62zM267 762v98h117v-98h-117zM83 762v98h118v-98h-118z" />
    <glyph glyph-name="Ograve" unicode="&#xd2;" 
d="M22 509c0 155 53 227 212 227s212 -72 212 -227v-300c0 -155 -53 -226 -212 -226s-212 71 -212 226v300zM191 563v-398c0 -43 11 -62 43 -62s42 19 42 62v398c0 43 -10 62 -42 62s-43 -19 -43 -62zM213 757l-121 109h162l63 -109h-104z" />
    <glyph glyph-name="Otilde" unicode="&#xd5;" 
d="M22 509c0 155 53 227 212 227s212 -72 212 -227v-300c0 -155 -53 -226 -212 -226s-212 71 -212 226v300zM191 563v-398c0 -43 11 -62 43 -62s42 19 42 62v398c0 43 -10 62 -42 62s-43 -19 -43 -62zM397 861v-8c0 -56 -38 -91 -101 -91c-53 0 -92 31 -124 31
c-20 0 -32 -10 -32 -29v-2h-69v8c0 55 39 91 101 91c53 0 92 -31 124 -31c20 0 32 10 32 29v2h69z" />
    <glyph glyph-name="Scaron" unicode="&#x160;" horiz-adv-x="466" 
d="M396 324c42 -43 54 -85 54 -144c0 -132 -63 -196 -217 -196c-145 0 -212 56 -212 181v113h169v-113c0 -43 11 -62 43 -62c31 0 44 20 44 62c0 25 -1 45 -20 63l-185 182c-45 44 -56 83 -56 146c0 116 79 179 219 179c141 0 212 -57 212 -169v-104h-169v101
c0 43 -11 62 -43 62c-36 0 -49 -21 -49 -62c0 -17 9 -37 25 -53zM186 866l47 -44l48 44h112l-103 -109h-116l-101 109h113z" />
    <glyph glyph-name="Thorn" unicode="&#xde;" horiz-adv-x="469" 
d="M23 0v720h169v-113c19 1 36 1 52 1c145 0 205 -35 205 -164v-107c0 -120 -69 -172 -219 -172c-12 0 -25 0 -38 1v-166h-169zM192 503v-229c7 -1 14 -1 20 -1c46 0 66 17 66 64v108c0 45 -22 58 -74 58h-12z" />
    <glyph glyph-name="Uacute" unicode="&#xda;" horiz-adv-x="469" 
d="M446 720v-511c0 -155 -53 -226 -212 -226s-211 71 -211 226v511h169v-555c0 -43 10 -62 42 -62s43 19 43 62v555h169zM256 757h-104l63 109h161z" />
    <glyph glyph-name="Ucircumflex" unicode="&#xdb;" horiz-adv-x="469" 
d="M446 720v-511c0 -155 -53 -226 -212 -226s-211 71 -211 226v511h169v-555c0 -43 10 -62 42 -62s43 19 43 62v555h169zM188 757h-113l101 109h116l103 -109h-112l-48 44z" />
    <glyph glyph-name="Udieresis" unicode="&#xdc;" horiz-adv-x="469" 
d="M446 720v-511c0 -155 -53 -226 -212 -226s-211 71 -211 226v511h169v-555c0 -43 10 -62 42 -62s43 19 43 62v555h169zM268 762v98h117v-98h-117zM84 762v98h118v-98h-118z" />
    <glyph glyph-name="Ugrave" unicode="&#xd9;" horiz-adv-x="469" 
d="M446 720v-511c0 -155 -53 -226 -212 -226s-211 71 -211 226v511h169v-555c0 -43 10 -62 42 -62s43 19 43 62v555h169zM214 757l-121 109h162l63 -109h-104z" />
    <glyph glyph-name="Yacute" unicode="&#xdd;" horiz-adv-x="424" 
d="M123 0v263l-139 457h177l31 -142c10 -44 17 -96 24 -157h4c7 58 16 117 30 178l29 121h157l-144 -457v-263h-169zM233 757h-104l63 109h161z" />
    <glyph glyph-name="Ydieresis" unicode="&#x178;" horiz-adv-x="424" 
d="M123 0v263l-139 457h177l31 -142c10 -44 17 -96 24 -157h4c7 58 16 117 30 178l29 121h157l-144 -457v-263h-169zM245 762v98h117v-98h-117zM61 762v98h118v-98h-118z" />
    <glyph glyph-name="Zcaron" unicode="&#x17d;" horiz-adv-x="396" 
d="M10 0v122l190 490h-183v108h363v-108l-196 -504h191v-108h-365zM151 866l47 -44l48 44h112l-103 -109h-116l-101 109h113z" />
    <glyph glyph-name="aacute" unicode="&#xe1;" horiz-adv-x="425" 
d="M244 65c-11 -47 -54 -77 -109 -77c-90 0 -115 54 -115 157c0 114 9 132 109 187c79 44 117 54 117 107c0 30 -11 45 -33 45s-33 -16 -33 -48v-64h-160v74c0 91 72 144 196 144c128 0 189 -54 189 -165v-372c0 -15 2 -32 5 -53h-158l-5 65h-3zM245 166v124
c-41 -35 -66 -46 -66 -79v-45c0 -33 8 -48 33 -48s33 16 33 48zM242 611h-104l63 109h161z" />
    <glyph glyph-name="acircumflex" unicode="&#xe2;" horiz-adv-x="425" 
d="M244 65c-11 -47 -54 -77 -109 -77c-90 0 -115 54 -115 157c0 114 9 132 109 187c79 44 117 54 117 107c0 30 -11 45 -33 45s-33 -16 -33 -48v-64h-160v74c0 91 72 144 196 144c128 0 189 -54 189 -165v-372c0 -15 2 -32 5 -53h-158l-5 65h-3zM245 166v124
c-41 -35 -66 -46 -66 -79v-45c0 -33 8 -48 33 -48s33 16 33 48zM174 611h-113l101 109h116l103 -109h-112l-48 44z" />
    <glyph glyph-name="adieresis" unicode="&#xe4;" horiz-adv-x="425" 
d="M244 65c-11 -47 -54 -77 -109 -77c-90 0 -115 54 -115 157c0 114 9 132 109 187c79 44 117 54 117 107c0 30 -11 45 -33 45s-33 -16 -33 -48v-64h-160v74c0 91 72 144 196 144c128 0 189 -54 189 -165v-372c0 -15 2 -32 5 -53h-158l-5 65h-3zM245 166v124
c-41 -35 -66 -46 -66 -79v-45c0 -33 8 -48 33 -48s33 16 33 48zM254 616v98h117v-98h-117zM70 616v98h118v-98h-118z" />
    <glyph glyph-name="agrave" unicode="&#xe0;" horiz-adv-x="425" 
d="M244 65c-11 -47 -54 -77 -109 -77c-90 0 -115 54 -115 157c0 114 9 132 109 187c79 44 117 54 117 107c0 30 -11 45 -33 45s-33 -16 -33 -48v-64h-160v74c0 91 72 144 196 144c128 0 189 -54 189 -165v-372c0 -15 2 -32 5 -53h-158l-5 65h-3zM245 166v124
c-41 -35 -66 -46 -66 -79v-45c0 -33 8 -48 33 -48s33 16 33 48zM200 611l-121 109h162l63 -109h-104z" />
    <glyph glyph-name="aring" unicode="&#xe5;" horiz-adv-x="425" 
d="M245 166v124c-41 -35 -66 -46 -66 -79v-45c0 -33 8 -48 33 -48s33 16 33 48zM125 710c0 53 45 97 97 97s97 -45 97 -97c0 -53 -44 -97 -97 -97s-97 44 -97 97zM186 710c0 -19 17 -36 36 -36s36 17 36 36c0 20 -16 36 -36 36s-36 -16 -36 -36zM20 372v74
c0 91 72 144 196 144c128 0 189 -54 189 -165v-372c0 -15 2 -32 5 -53h-158l-5 65h-3c-11 -47 -54 -77 -109 -77c-90 0 -115 54 -115 157c0 114 9 132 109 187c79 44 117 54 117 107c0 30 -11 45 -33 45s-33 -16 -33 -48v-64h-160z" />
    <glyph glyph-name="atilde" unicode="&#xe3;" horiz-adv-x="425" 
d="M244 65c-11 -47 -54 -77 -109 -77c-90 0 -115 54 -115 157c0 114 9 132 109 187c79 44 117 54 117 107c0 30 -11 45 -33 45s-33 -16 -33 -48v-64h-160v74c0 91 72 144 196 144c128 0 189 -54 189 -165v-372c0 -15 2 -32 5 -53h-158l-5 65h-3zM245 166v124
c-41 -35 -66 -46 -66 -79v-45c0 -33 8 -48 33 -48s33 16 33 48zM384 715v-8c0 -56 -38 -91 -101 -91c-53 0 -92 31 -124 31c-20 0 -32 -10 -32 -29v-2h-69v8c0 55 39 91 101 91c53 0 92 -31 124 -31c20 0 32 10 32 29v2h69z" />
    <glyph glyph-name="brokenbar" unicode="&#xa6;" horiz-adv-x="500" 
d="M192 699h117v-370h-117v370zM192 199h117v-370h-117v370z" />
    <glyph glyph-name="ccedilla" unicode="&#xe7;" horiz-adv-x="422" 
d="M404 223v-64c0 -116 -64 -173 -193 -173c-144 0 -193 65 -193 205v194c0 140 48 205 193 205c124 0 193 -57 193 -160v-58h-160v67c0 32 -11 48 -33 48s-33 -16 -33 -48v-297c0 -32 9 -48 33 -48c23 0 33 16 33 48v81h160zM68 -130l102 97h108l-58 -97h-152z" />
    <glyph glyph-name="copyright" unicode="&#xa9;" horiz-adv-x="833" 
d="M416 725c100 0 190 -37 260 -107c69 -69 105 -159 105 -258c0 -100 -36 -189 -104 -256c-72 -71 -165 -109 -261 -109s-187 38 -257 108s-107 160 -107 257c0 96 38 188 108 259c68 69 156 106 256 106zM417 659c-82 0 -154 -30 -210 -87c-57 -58 -89 -133 -89 -212
c0 -78 32 -153 89 -210s131 -88 210 -88c78 0 154 31 213 89c56 55 85 127 85 209c0 81 -30 155 -86 211c-57 57 -130 88 -212 88zM596 435h-104c-4 44 -32 69 -76 69c-52 0 -86 -50 -86 -143c0 -92 32 -139 91 -139c43 0 70 27 74 76h105c-4 -93 -75 -155 -181 -155
c-123 0 -201 81 -201 214c0 136 79 220 200 220c103 0 173 -57 178 -142z" />
    <glyph glyph-name="degree" unicode="&#xb0;" horiz-adv-x="329" 
d="M165 716c83 0 152 -67 152 -152c0 -83 -68 -152 -153 -152c-84 0 -151 67 -151 152c0 86 68 152 152 152zM165 645c-44 0 -81 -35 -81 -80s35 -81 81 -81c45 0 80 37 80 81s-35 80 -80 80z" />
    <glyph glyph-name="divide" unicode="&#xf7;" horiz-adv-x="833" 
d="M417 577c43 0 80 -36 80 -81c0 -43 -35 -80 -81 -80c-45 0 -80 36 -80 80c0 45 37 81 81 81zM124 355h585v-113h-585v113zM417 181c44 0 80 -36 80 -81c0 -43 -34 -80 -80 -80c-44 0 -81 35 -81 80s37 81 81 81z" />
    <glyph glyph-name="eacute" unicode="&#xe9;" horiz-adv-x="422" 
d="M244 369v70c0 32 -11 48 -33 48s-33 -16 -33 -48v-70h66zM404 223v-64c0 -116 -64 -173 -193 -173c-144 0 -193 65 -193 205v194c0 140 49 205 193 205c127 0 193 -56 193 -165v-154h-226v-129c0 -32 9 -48 33 -48c23 0 33 16 33 48v81h160zM232 611h-104l63 109h161z
" />
    <glyph glyph-name="ecircumflex" unicode="&#xea;" horiz-adv-x="422" 
d="M244 369v70c0 32 -11 48 -33 48s-33 -16 -33 -48v-70h66zM404 223v-64c0 -116 -64 -173 -193 -173c-144 0 -193 65 -193 205v194c0 140 49 205 193 205c127 0 193 -56 193 -165v-154h-226v-129c0 -32 9 -48 33 -48c23 0 33 16 33 48v81h160zM164 611h-113l101 109h116
l103 -109h-112l-48 44z" />
    <glyph glyph-name="edieresis" unicode="&#xeb;" horiz-adv-x="422" 
d="M244 369v70c0 32 -11 48 -33 48s-33 -16 -33 -48v-70h66zM404 223v-64c0 -116 -64 -173 -193 -173c-144 0 -193 65 -193 205v194c0 140 49 205 193 205c127 0 193 -56 193 -165v-154h-226v-129c0 -32 9 -48 33 -48c23 0 33 16 33 48v81h160zM244 616v98h117v-98h-117z
M60 616v98h118v-98h-118z" />
    <glyph glyph-name="egrave" unicode="&#xe8;" horiz-adv-x="422" 
d="M244 369v70c0 32 -11 48 -33 48s-33 -16 -33 -48v-70h66zM404 223v-64c0 -116 -64 -173 -193 -173c-144 0 -193 65 -193 205v194c0 140 49 205 193 205c127 0 193 -56 193 -165v-154h-226v-129c0 -32 9 -48 33 -48c23 0 33 16 33 48v81h160zM190 611l-121 109h162
l63 -109h-104z" />
    <glyph glyph-name="eth" unicode="&#xf0;" horiz-adv-x="422" 
d="M213 513c-26 33 -48 55 -66 68l-101 -37l-15 43l76 28c-12 11 -25 20 -39 28l114 76c17 -12 41 -29 69 -53l125 43l17 -44l-104 -37c101 -96 115 -182 115 -305v-150c0 -129 -49 -187 -193 -187s-192 58 -192 187v177c0 120 14 186 106 186c27 0 54 -9 88 -23zM178 393
v-258c0 -28 10 -41 33 -41s33 13 33 41v258c0 28 -11 42 -33 42s-33 -14 -33 -42z" />
    <glyph glyph-name="iacute" unicode="&#xed;" horiz-adv-x="200" 
d="M180 0h-160v576h160v-576zM121 611h-104l63 109h161z" />
    <glyph glyph-name="icircumflex" unicode="&#xee;" horiz-adv-x="200" 
d="M180 0h-160v576h160v-576zM53 611h-113l101 109h116l103 -109h-112l-48 44z" />
    <glyph glyph-name="idieresis" unicode="&#xef;" horiz-adv-x="200" 
d="M180 0h-160v576h160v-576zM133 616v98h117v-98h-117zM-51 616v98h118v-98h-118z" />
    <glyph glyph-name="igrave" unicode="&#xec;" horiz-adv-x="200" 
d="M180 0h-160v576h160v-576zM79 611l-121 109h162l63 -109h-104z" />
    <glyph glyph-name="logicalnot" unicode="&#xac;" horiz-adv-x="833" 
d="M124 423h585v-245h-112v134h-473v111z" />
    <glyph glyph-name="minus" unicode="&#x2212;" horiz-adv-x="833" 
d="M124 356h585v-115h-585v115z" />
    <glyph glyph-name="mu" unicode="&#xb5;" horiz-adv-x="642" 
d="M94 532h175l-39 -258c-4 -27 -6 -51 -6 -70c0 -55 23 -83 70 -83c59 0 89 46 104 141l43 270h174l-85 -532h-157l9 61c-26 -48 -56 -69 -102 -69c-38 0 -70 20 -90 59l-40 -260h-172z" />
    <glyph glyph-name="multiply" unicode="&#xd7;" horiz-adv-x="833" 
d="M210 593l215 -215l215 215l79 -79l-215 -216l215 -215l-79 -79l-215 215l-215 -215l-79 79l215 215l-215 216z" />
    <glyph glyph-name="ntilde" unicode="&#xf1;" horiz-adv-x="426" 
d="M406 0h-160v407c0 34 -8 49 -33 49s-33 -17 -33 -49v-407h-160v576h156v-67h2c30 53 68 79 121 79c89 0 107 -58 107 -164v-424zM379 715v-8c0 -56 -38 -91 -101 -91c-53 0 -92 31 -124 31c-20 0 -32 -10 -32 -29v-2h-69v8c0 55 39 91 101 91c53 0 92 -31 124 -31
c20 0 32 10 32 29v2h69z" />
    <glyph glyph-name="oacute" unicode="&#xf3;" horiz-adv-x="422" 
d="M19 385c0 140 47 205 192 205c144 0 193 -65 193 -205v-194c0 -140 -48 -205 -193 -205c-144 0 -192 65 -192 205v194zM178 439v-297c0 -32 9 -48 33 -48s33 16 33 48v297c0 32 -11 48 -33 48s-33 -16 -33 -48zM232 611h-104l63 109h161z" />
    <glyph glyph-name="ocircumflex" unicode="&#xf4;" horiz-adv-x="422" 
d="M19 385c0 140 47 205 192 205c144 0 193 -65 193 -205v-194c0 -140 -48 -205 -193 -205c-144 0 -192 65 -192 205v194zM178 439v-297c0 -32 9 -48 33 -48s33 16 33 48v297c0 32 -11 48 -33 48s-33 -16 -33 -48zM164 611h-113l101 109h116l103 -109h-112l-48 44z" />
    <glyph glyph-name="odieresis" unicode="&#xf6;" horiz-adv-x="422" 
d="M19 385c0 140 47 205 192 205c144 0 193 -65 193 -205v-194c0 -140 -48 -205 -193 -205c-144 0 -192 65 -192 205v194zM178 439v-297c0 -32 9 -48 33 -48s33 16 33 48v297c0 32 -11 48 -33 48s-33 -16 -33 -48zM244 616v98h117v-98h-117zM60 616v98h118v-98h-118z" />
    <glyph glyph-name="ograve" unicode="&#xf2;" horiz-adv-x="422" 
d="M19 385c0 140 47 205 192 205c144 0 193 -65 193 -205v-194c0 -140 -48 -205 -193 -205c-144 0 -192 65 -192 205v194zM178 439v-297c0 -32 9 -48 33 -48s33 16 33 48v297c0 32 -11 48 -33 48s-33 -16 -33 -48zM190 611l-121 109h162l63 -109h-104z" />
    <glyph glyph-name="onehalf" unicode="&#xbd;" horiz-adv-x="746" 
d="M107 316v298h-71v59c51 3 82 19 90 46h87v-403h-106zM530 736h77l-392 -753h-75zM467 0v67c0 44 23 73 56 111c58 64 103 95 103 124v26c0 15 -9 22 -27 22c-20 0 -27 -11 -27 -35v-55h-106v58c0 59 48 94 133 94c91 0 134 -28 134 -93c0 -69 -28 -96 -76 -147
c-41 -44 -74 -75 -78 -106h154v-66h-266z" />
    <glyph glyph-name="onequarter" unicode="&#xbc;" horiz-adv-x="746" 
d="M107 316v298h-71v59c51 3 82 19 90 46h87v-403h-106zM530 736h77l-392 -753h-75zM603 0v93h-147v79l124 231h128v-246h34v-64h-34v-93h-105zM526 157h78l4 120c0 18 1 35 3 53h-3c-12 -28 -19 -44 -21 -48z" />
    <glyph glyph-name="onesuperior" unicode="&#xb9;" horiz-adv-x="309" 
d="M112 288v320h-75v62c53 3 86 21 95 50h91v-432h-111z" />
    <glyph glyph-name="otilde" unicode="&#xf5;" horiz-adv-x="422" 
d="M19 385c0 140 47 205 192 205c144 0 193 -65 193 -205v-194c0 -140 -48 -205 -193 -205c-144 0 -192 65 -192 205v194zM178 439v-297c0 -32 9 -48 33 -48s33 16 33 48v297c0 32 -11 48 -33 48s-33 -16 -33 -48zM374 715v-8c0 -56 -38 -91 -101 -91c-53 0 -92 31 -124 31
c-20 0 -32 -10 -32 -29v-2h-69v8c0 55 39 91 101 91c53 0 92 -31 124 -31c20 0 32 10 32 29v2h69z" />
    <glyph glyph-name="plusminus" unicode="&#xb1;" horiz-adv-x="833" 
d="M359 606h116v-156h234v-113h-234v-156h-116v156h-235v113h235v156zM124 104h585v-113h-585v113z" />
    <glyph glyph-name="registered" unicode="&#xae;" horiz-adv-x="833" 
d="M416 725c101 0 193 -38 263 -110c67 -68 102 -158 102 -255c0 -101 -38 -192 -108 -259c-72 -69 -163 -106 -257 -106c-98 0 -189 39 -259 111c-68 70 -105 159 -105 254c0 97 39 191 111 262c68 67 155 103 253 103zM417 659c-81 0 -152 -29 -208 -84
c-59 -59 -90 -135 -90 -215c0 -78 29 -150 85 -207c57 -59 132 -91 212 -91c78 0 153 30 211 86c57 55 88 130 88 212c0 80 -29 153 -84 209c-58 59 -132 90 -214 90zM262 568h161c115 0 173 -41 173 -116c0 -52 -31 -92 -85 -108l89 -176h-121l-75 159h-32v-159h-110v400z
M372 499v-107h39c48 0 72 17 72 52c0 39 -25 55 -78 55h-33z" />
    <glyph glyph-name="scaron" unicode="&#x161;" horiz-adv-x="422" 
d="M403 372h-158v67c0 35 -8 52 -33 52s-36 -16 -36 -51c0 -49 30 -57 101 -102c92 -58 127 -86 127 -184c0 -108 -69 -168 -194 -168c-130 0 -191 55 -191 173v64h158v-81c0 -34 10 -49 33 -49s36 18 36 51c0 59 -34 68 -93 105c-91 57 -136 84 -136 180
c0 104 70 161 195 161c123 0 191 -56 191 -154v-64zM164 720l47 -44l48 44h112l-103 -109h-116l-101 109h113z" />
    <glyph glyph-name="thorn" unicode="&#xfe;" horiz-adv-x="425" 
d="M181 407v-237c0 -32 7 -49 33 -49c25 0 33 15 33 49v237c0 34 -8 49 -33 49c-26 0 -33 -17 -33 -49zM21 -130v850h159v-214c26 56 59 82 111 82c92 0 115 -54 115 -164v-271c0 -110 -23 -165 -115 -165c-49 0 -89 28 -110 79v-197h-160z" />
    <glyph glyph-name="threequarters" unicode="&#xbe;" horiz-adv-x="747" 
d="M14 472h106v-64c0 -24 7 -34 27 -34c21 0 27 10 27 34v47c0 30 -7 40 -44 40h-41v62h38c34 0 47 13 47 40v34c0 24 -6 35 -27 35c-20 0 -27 -11 -27 -35v-55h-106v58c0 59 48 94 133 94s134 -33 134 -87v-37c0 -41 -22 -65 -70 -77c49 -8 70 -28 70 -70v-47
c0 -67 -47 -104 -134 -104c-86 0 -133 37 -133 102v64zM530 736h77l-392 -753h-75zM603 0v93h-147v79l124 231h128v-246h34v-64h-34v-93h-105zM526 157h78l4 120c0 18 1 35 3 53h-3c-12 -28 -19 -44 -21 -48z" />
    <glyph glyph-name="threesuperior" unicode="&#xb3;" horiz-adv-x="309" 
d="M15 455h111v-68c0 -26 7 -37 28 -37c22 0 28 11 28 37v50c0 32 -7 43 -46 43h-43v67h40c36 0 49 13 49 42v37c0 26 -6 37 -28 37c-21 0 -28 -11 -28 -37v-59h-111v61c0 64 50 102 139 102c90 0 140 -36 140 -93v-41c0 -43 -23 -69 -73 -82c51 -8 73 -30 73 -75v-51
c0 -71 -48 -110 -140 -110c-90 0 -139 39 -139 109v68z" />
    <glyph glyph-name="trademark" unicode="&#x2122;" horiz-adv-x="833" 
d="M92 715h245v-62h-80v-207h-85v207h-80v62zM389 715h109l55 -148l56 148h108v-269h-76v190l-71 -190h-32l-73 190v-190h-76v269z" />
    <glyph glyph-name="twosuperior" unicode="&#xb2;" horiz-adv-x="309" 
d="M16 288v72c0 47 24 78 59 118c60 69 107 103 107 134v28c0 16 -9 23 -28 23c-21 0 -28 -11 -28 -37v-59h-111v61c0 64 50 102 139 102c95 0 140 -30 140 -100c0 -74 -29 -103 -79 -157c-43 -48 -78 -81 -82 -114h161v-71h-278z" />
    <glyph glyph-name="uacute" unicode="&#xfa;" horiz-adv-x="426" 
d="M20 576h160v-407c0 -34 8 -49 33 -49s33 17 33 49v407h160v-576h-156v67h-2c-30 -53 -69 -79 -122 -79c-89 0 -106 60 -106 165v423zM239 611h-104l63 109h161z" />
    <glyph glyph-name="ucircumflex" unicode="&#xfb;" horiz-adv-x="426" 
d="M20 576h160v-407c0 -34 8 -49 33 -49s33 17 33 49v407h160v-576h-156v67h-2c-30 -53 -69 -79 -122 -79c-89 0 -106 60 -106 165v423zM171 611h-113l101 109h116l103 -109h-112l-48 44z" />
    <glyph glyph-name="udieresis" unicode="&#xfc;" horiz-adv-x="426" 
d="M20 576h160v-407c0 -34 8 -49 33 -49s33 17 33 49v407h160v-576h-156v67h-2c-30 -53 -69 -79 -122 -79c-89 0 -106 60 -106 165v423zM251 616v98h117v-98h-117zM67 616v98h118v-98h-118z" />
    <glyph glyph-name="ugrave" unicode="&#xf9;" horiz-adv-x="426" 
d="M20 576h160v-407c0 -34 8 -49 33 -49s33 17 33 49v407h160v-576h-156v67h-2c-30 -53 -69 -79 -122 -79c-89 0 -106 60 -106 165v423zM197 611l-121 109h162l63 -109h-104z" />
    <glyph glyph-name="yacute" unicode="&#xfd;" horiz-adv-x="388" 
d="M6 -130v102h85c18 0 27 8 27 23c0 6 -2 15 -5 27l-122 554h162l37 -239c6 -38 10 -94 14 -171h4c5 86 10 150 17 191l36 219h135l-122 -577c-18 -86 -43 -129 -127 -129h-141zM215 611h-104l63 109h161z" />
    <glyph glyph-name="ydieresis" unicode="&#xff;" horiz-adv-x="388" 
d="M6 -130v102h85c18 0 27 8 27 23c0 6 -2 15 -5 27l-122 554h162l37 -239c6 -38 10 -94 14 -171h4c5 86 10 150 17 191l36 219h135l-122 -577c-18 -86 -43 -129 -127 -129h-141zM227 616v98h117v-98h-117zM43 616v98h118v-98h-118z" />
    <glyph glyph-name="zcaron" unicode="&#x17e;" horiz-adv-x="355" 
d="M13 0v97l149 374h-146v105h325v-81l-154 -390h156v-105h-330zM131 720l47 -44l48 44h112l-103 -109h-116l-101 109h113z" />
    </font>
</defs>
</svg>
